<svg width="128" height="128" viewBox="0 0 128 128" fill="none" xmlns="http://www.w3.org/2000/svg">
  <rect x="4" y="4" width="120" height="120" rx="28" fill="#2B1159"/>
  <path d="M46 37.5C46 27.835 53.835 20 63.5 20H64.5C74.165 20 82 27.835 82 37.5V38.2C90.2 40.3 96 47.7 96 56.5V71.5C96 80.3 90.2 87.7 82 89.8V90.5C82 100.165 74.165 108 64.5 108H63.5C53.835 108 46 100.165 46 90.5V89.8C37.8 87.7 32 80.3 32 71.5V56.5C32 47.7 37.8 40.3 46 38.2V37.5Z" fill="#FFFFFF" fill-opacity="0.12"/>
  <path d="M64 33V95" stroke="white" stroke-width="6" stroke-linecap="round"/>
  <path d="M48 54H59" stroke="white" stroke-width="6" stroke-linecap="round"/>
  <path d="M69 74H80" stroke="white" stroke-width="6" stroke-linecap="round"/>
  <path d="M46 37.5C46 27.835 53.835 20 63.5 20H64.5C74.165 20 82 27.835 82 37.5V38.2C90.2 40.3 96 47.7 96 56.5V71.5C96 80.3 90.2 87.7 82 89.8V90.5C82 100.165 74.165 108 64.5 108H63.5C53.835 108 46 100.165 46 90.5V89.8C37.8 87.7 32 80.3 32 71.5V56.5C32 47.7 37.8 40.3 46 38.2V37.5Z" stroke="white" stroke-width="5" stroke-linecap="round" stroke-linejoin="round"/>
</svg>
